<?xml version="1.0" standalone="no"?>
<!DOCTYPE svg PUBLIC "-//W3C//DTD SVG 20010904//EN"
 "http://www.w3.org/TR/2001/REC-SVG-20010904/DTD/svg10.dtd">
<svg version="1.0" xmlns="http://www.w3.org/2000/svg"
 width="70.000000pt" height="70.000000pt" viewBox="0 0 70.000000 70.000000"
 preserveAspectRatio="xMidYMid meet">
<metadata>
Created by potrace 1.14, written by Peter Selinger 2001-2017
</metadata>
<g transform="translate(0.000000,70.000000) scale(0.100000,-0.100000)"
fill="#000000" stroke="none">
<path d="M285 678 c-85 -18 -129 -70 -171 -202 -14 -47 -19 -75 -13 -83 7 -7
6 -14 -1 -18 -15 -9 -12 -49 9 -104 16 -42 17 -54 6 -75 -12 -23 -11 -25 18
-37 18 -7 34 -12 37 -13 3 -1 23 -21 45 -45 74 -82 152 -97 229 -43 40 28 86
81 86 100 0 12 12 16 42 13 22 -3 32 17 18 34 -8 10 -8 19 -1 33 27 50 30 162
6 219 -8 18 -12 33 -10 33 7 0 -35 91 -55 120 -41 57 -152 88 -245 68z"/>
</g>
</svg>
