<?xml version="1.0" standalone="no"?>
<!DOCTYPE svg PUBLIC "-//W3C//DTD SVG 20010904//EN"
 "http://www.w3.org/TR/2001/REC-SVG-20010904/DTD/svg10.dtd">
<svg version="1.0" xmlns="http://www.w3.org/2000/svg"
 width="70.000000pt" height="70.000000pt" viewBox="0 0 70.000000 70.000000"
 preserveAspectRatio="xMidYMid meet">
<metadata>
Created by potrace 1.14, written by Peter Selinger 2001-2017
</metadata>
<g transform="translate(0.000000,70.000000) scale(0.100000,-0.100000)"
fill="#000000" stroke="none">
<path d="M348 665 c-2 -2 -16 -6 -32 -9 -77 -14 -142 -98 -166 -212 -7 -32
-23 -73 -37 -90 -22 -29 -22 -33 -8 -48 9 -9 21 -14 26 -10 11 7 32 -45 25
-63 -3 -7 -12 -13 -21 -13 -8 0 -15 -4 -15 -10 0 -5 -6 -10 -14 -10 -8 0 -17
-4 -20 -9 -10 -15 -15 -86 -8 -97 10 -15 69 -37 81 -30 5 3 15 0 23 -7 8 -9
31 -13 63 -11 57 3 78 23 72 67 -3 23 1 31 21 38 14 6 39 7 56 3 77 -18 117
-5 155 52 17 26 31 58 31 71 0 13 7 26 15 29 13 5 25 30 31 63 2 8 -2 23 -8
34 -7 15 -7 22 3 28 11 7 10 13 -7 27 -11 9 -35 44 -53 77 -38 68 -69 100
-115 114 -36 12 -93 21 -98 16z m258 -321 c-4 -13 -10 -24 -15 -24 -4 0 -3 19
3 42 6 23 12 34 14 24 2 -10 1 -28 -2 -42z"/>
</g>
</svg>
