<?xml version="1.0" standalone="no"?>
<!DOCTYPE svg PUBLIC "-//W3C//DTD SVG 20010904//EN"
 "http://www.w3.org/TR/2001/REC-SVG-20010904/DTD/svg10.dtd">
<svg version="1.0" xmlns="http://www.w3.org/2000/svg"
 width="70.000000pt" height="70.000000pt" viewBox="0 0 70.000000 70.000000"
 preserveAspectRatio="xMidYMid meet">
<metadata>
Created by potrace 1.14, written by Peter Selinger 2001-2017
</metadata>
<g transform="translate(0.000000,70.000000) scale(0.100000,-0.100000)"
fill="#000000" stroke="none">
<path d="M266 585 c-75 -39 -121 -181 -91 -281 10 -35 11 -51 3 -61 -8 -10 -3
-16 21 -24 17 -6 31 -15 31 -19 0 -5 19 -23 41 -41 56 -44 101 -45 157 -1 22
18 44 42 47 52 4 12 15 20 29 20 19 0 23 6 23 33 0 17 3 56 6 85 10 90 -40
209 -99 237 -41 19 -131 19 -168 0z"/>
</g>
</svg>
