<?xml version="1.0" standalone="no"?>
<!DOCTYPE svg PUBLIC "-//W3C//DTD SVG 20010904//EN"
 "http://www.w3.org/TR/2001/REC-SVG-20010904/DTD/svg10.dtd">
<svg version="1.0" xmlns="http://www.w3.org/2000/svg"
 width="70.000000pt" height="70.000000pt" viewBox="0 0 70.000000 70.000000"
 preserveAspectRatio="xMidYMid meet">
<metadata>
Created by potrace 1.14, written by Peter Selinger 2001-2017
</metadata>
<g transform="translate(0.000000,70.000000) scale(0.100000,-0.100000)"
fill="#000000" stroke="none">
<path d="M266 655 c-85 -30 -164 -152 -171 -267 -4 -61 9 -142 27 -165 5 -6 6
-28 3 -47 -6 -31 -4 -37 16 -45 13 -5 40 -23 59 -40 19 -17 49 -35 65 -40 44
-12 114 -3 153 19 18 11 53 25 78 31 24 6 44 16 44 21 0 5 10 9 23 8 12 -1 28
-2 35 -1 17 1 15 28 -3 34 -15 6 -13 40 5 61 5 7 7 15 4 19 -3 3 4 10 15 17
25 13 26 23 5 56 -9 13 -18 43 -19 67 -9 130 -68 234 -154 269 -40 16 -142 18
-185 3z"/>
</g>
</svg>
